<svg width="375" height="375" viewBox="0 0 375 375" fill="none" xmlns="http://www.w3.org/2000/svg">
<path fill-rule="evenodd" clip-rule="evenodd" d="M328.142 240.458V119.026C328.142 106.956 321.683 95.822 311.162 89.7868L205.951 29.0187C195.43 22.9836 182.617 22.9836 172.096 29.0187L66.8842 89.6828C56.3631 95.718 49.9045 106.852 49.9045 119.026V240.458C49.9045 252.529 56.3631 263.663 66.8842 269.698L172.096 330.362C182.617 336.397 195.43 336.397 205.951 330.362L311.266 269.594C321.683 263.663 328.142 252.529 328.142 240.458Z" fill="#3330B4"/>
<path fill-rule="evenodd" clip-rule="evenodd" d="M189.075 316.21C186.471 316.21 183.867 315.482 181.471 314.233L76.2594 253.465C71.5718 250.76 68.655 245.765 68.655 240.354V119.026C68.655 113.615 71.5718 108.621 76.1553 105.915L181.471 45.1473C183.763 43.7945 186.367 43.1702 189.075 43.1702C191.784 43.1702 194.284 43.8986 196.68 45.1473L301.995 105.915C306.683 108.621 309.6 113.615 309.6 119.026V240.458C309.6 245.869 306.683 250.864 301.995 253.569L196.68 314.337C194.284 315.482 191.68 316.21 189.075 316.21Z" fill="#61C4FC"/>
<mask id="mask0_401_2" style="mask-type:alpha" maskUnits="userSpaceOnUse" x="59" y="157" width="259" height="61">
<path d="M59.6455 157.301H317.645V217.301H59.6455V157.301Z" fill="white"/>
</mask>
<g mask="url(#mask0_401_2)">
<path fill-rule="evenodd" clip-rule="evenodd" d="M59.6455 58.2317H317.645V316.232H59.6455V58.2317Z" fill="#3330B4"/>
</g>
<mask id="mask1_401_2" style="mask-type:alpha" maskUnits="userSpaceOnUse" x="171" y="268" width="36" height="35">
<path d="M171 268H206.139V302.037H171V268Z" fill="white"/>
</mask>
<g mask="url(#mask1_401_2)">
<path fill-rule="evenodd" clip-rule="evenodd" d="M193.917 279.167L206.139 280.912L197.335 289.657L199.471 301.948L188.523 296.186L177.621 302.037L179.658 289.73L170.785 281.056L182.992 279.212L188.41 268L193.917 279.167Z" fill="white"/>
</g>
<path fill-rule="evenodd" clip-rule="evenodd" d="M227.87 89.8803C227.87 88.6713 227.312 87.7413 226.289 87.0903C226.103 86.9973 225.824 86.8113 225.638 86.7183C225.638 83.6494 225.545 80.4875 225.359 77.3256C224.987 70.0718 221.174 66.5378 214.013 66.4448C207.782 66.4448 201.551 66.4448 195.32 66.4448C185.183 66.4448 175.139 66.3518 165.002 66.5378C155.702 66.7238 151.982 70.6297 151.982 79.9295C151.982 82.1614 151.982 84.3934 151.982 86.7183C151.424 86.9043 150.959 87.3693 150.587 87.8343C149.936 88.3923 149.75 89.2293 149.75 90.1592C149.75 94.4371 149.75 98.715 149.75 103.086C149.75 104.388 150.215 105.411 151.331 106.062C151.61 106.248 151.796 106.341 152.075 106.434C152.075 115.641 152.075 124.754 152.075 133.961C152.075 135.263 151.889 136.751 152.54 137.867C153.935 140.099 153.656 142.517 153.749 144.935C153.842 147.911 155.795 149.957 158.771 150.05C160.91 150.143 163.049 150.143 165.188 150.05C168.257 149.957 170.21 148.19 170.303 145.121C170.396 143.819 170.582 143.354 172.07 143.354C183.23 143.447 194.483 143.447 205.643 143.354C207.038 143.354 207.41 143.726 207.41 145.121C207.503 148.376 209.456 150.05 212.711 150.05C214.571 150.05 216.431 150.05 218.291 150.05C222.104 150.05 223.964 148.097 224.057 144.284C224.057 142.796 223.592 141.122 224.429 139.727C225.452 137.867 225.731 136.007 225.731 133.961C225.731 125.312 225.731 116.664 225.731 106.434C226.382 106.341 226.94 105.783 227.312 105.225C227.777 104.667 227.963 103.923 227.963 103.179C227.87 98.808 227.87 94.3441 227.87 89.8803ZM173.279 73.1407C178.859 73.1407 184.439 73.1407 189.926 73.1407C195.32 73.1407 200.714 73.1407 206.201 73.1407C208.619 73.1407 208.898 73.5127 208.991 76.3026C208.991 79.3715 208.712 79.8365 206.387 79.8365C195.32 79.8365 184.253 79.8365 173.279 79.8365C170.861 79.8365 170.396 79.2785 170.396 76.4886C170.303 73.6987 170.768 73.1407 173.279 73.1407ZM166.304 135.077C163.049 135.077 160.352 132.38 160.352 129.125C160.445 125.963 163.142 123.359 166.211 123.359C169.466 123.359 171.884 125.87 171.884 129.218C171.977 132.473 169.466 135.077 166.304 135.077ZM165.467 114.99C161.933 114.99 160.352 113.316 160.352 109.689C160.352 103.179 160.352 96.6691 160.352 90.1592C160.352 86.5323 161.84 85.0444 165.467 85.0444C173.279 85.0444 180.998 85.0444 188.81 85.0444C196.436 85.0444 204.062 85.0444 211.688 85.0444C215.78 85.0444 217.175 86.4393 217.175 90.4382C217.175 96.6691 217.175 102.9 217.175 109.131C217.175 112.851 215.129 114.897 211.409 114.99C196.157 114.99 180.812 114.99 165.467 114.99ZM211.409 135.077C208.247 135.077 205.736 132.566 205.643 129.311C205.643 125.963 208.061 123.452 211.316 123.452C214.571 123.452 217.268 126.149 217.268 129.404C217.175 132.38 214.571 135.077 211.409 135.077Z" fill="white"/>
<path d="M72.3232 195.26C70.9365 195.26 69.8792 194.87 69.1512 194.09C68.4232 193.293 68.0592 192.157 68.0592 190.684V181.116C68.0592 179.643 68.4232 178.516 69.1512 177.736C69.8792 176.939 70.9365 176.54 72.3232 176.54C73.7098 176.54 74.7672 176.939 75.4952 177.736C76.2232 178.516 76.5872 179.643 76.5872 181.116V182.676H73.8832V180.934C73.8832 179.738 73.3892 179.14 72.4012 179.14C71.4132 179.14 70.9192 179.738 70.9192 180.934V190.892C70.9192 192.071 71.4132 192.66 72.4012 192.66C73.3892 192.66 73.8832 192.071 73.8832 190.892V187.33H72.4532V184.73H76.5872V190.684C76.5872 192.157 76.2232 193.293 75.4952 194.09C74.7672 194.87 73.7098 195.26 72.3232 195.26ZM80.6594 179.4H77.6694V176.8H86.5094V179.4H83.5194V195H80.6594V179.4ZM87.8941 176.8H95.4601V179.4H90.7541V184.47H94.4461V187.07H90.7541V195H87.8941V176.8ZM100.55 195.26C99.163 195.26 98.1143 194.87 97.4036 194.09C96.693 193.293 96.3376 192.157 96.3376 190.684V189.644H99.0416V190.892C99.0416 192.071 99.5356 192.66 100.524 192.66C101.009 192.66 101.373 192.521 101.616 192.244C101.876 191.949 102.006 191.481 102.006 190.84C102.006 190.077 101.832 189.41 101.486 188.838C101.139 188.249 100.498 187.547 99.5616 186.732C98.383 185.692 97.5596 184.756 97.0916 183.924C96.6236 183.075 96.3896 182.121 96.3896 181.064C96.3896 179.625 96.7536 178.516 97.4816 177.736C98.2096 176.939 99.267 176.54 100.654 176.54C102.023 176.54 103.054 176.939 103.748 177.736C104.458 178.516 104.814 179.643 104.814 181.116V181.87H102.11V180.934C102.11 180.31 101.988 179.859 101.746 179.582C101.503 179.287 101.148 179.14 100.68 179.14C99.7263 179.14 99.2496 179.721 99.2496 180.882C99.2496 181.541 99.423 182.156 99.7696 182.728C100.134 183.3 100.784 183.993 101.72 184.808C102.916 185.848 103.739 186.793 104.19 187.642C104.64 188.491 104.866 189.488 104.866 190.632C104.866 192.123 104.493 193.267 103.748 194.064C103.02 194.861 101.954 195.26 100.55 195.26ZM112.88 176.8H116.754L119.718 195H116.858L116.338 191.386V191.438H113.088L112.568 195H109.916L112.88 176.8ZM116 188.968L114.726 179.972H114.674L113.426 188.968H116ZM125.084 195.26C123.715 195.26 122.666 194.87 121.938 194.09C121.228 193.31 120.872 192.209 120.872 190.788V181.012C120.872 179.591 121.228 178.49 121.938 177.71C122.666 176.93 123.715 176.54 125.084 176.54C126.454 176.54 127.494 176.93 128.204 177.71C128.932 178.49 129.296 179.591 129.296 181.012V182.936H126.592V180.83C126.592 179.703 126.116 179.14 125.162 179.14C124.209 179.14 123.732 179.703 123.732 180.83V190.996C123.732 192.105 124.209 192.66 125.162 192.66C126.116 192.66 126.592 192.105 126.592 190.996V188.214H129.296V190.788C129.296 192.209 128.932 193.31 128.204 194.09C127.494 194.87 126.454 195.26 125.084 195.26ZM135.088 195.26C133.719 195.26 132.67 194.87 131.942 194.09C131.232 193.31 130.876 192.209 130.876 190.788V181.012C130.876 179.591 131.232 178.49 131.942 177.71C132.67 176.93 133.719 176.54 135.088 176.54C136.458 176.54 137.498 176.93 138.208 177.71C138.936 178.49 139.3 179.591 139.3 181.012V182.936H136.596V180.83C136.596 179.703 136.12 179.14 135.166 179.14C134.213 179.14 133.736 179.703 133.736 180.83V190.996C133.736 192.105 134.213 192.66 135.166 192.66C136.12 192.66 136.596 192.105 136.596 190.996V188.214H139.3V190.788C139.3 192.209 138.936 193.31 138.208 194.09C137.498 194.87 136.458 195.26 135.088 195.26ZM141.011 176.8H148.811V179.4H143.871V184.21H147.797V186.81H143.871V192.4H148.811V195H141.011V176.8ZM154.225 195.26C152.839 195.26 151.79 194.87 151.079 194.09C150.369 193.293 150.013 192.157 150.013 190.684V189.644H152.717V190.892C152.717 192.071 153.211 192.66 154.199 192.66C154.685 192.66 155.049 192.521 155.291 192.244C155.551 191.949 155.681 191.481 155.681 190.84C155.681 190.077 155.508 189.41 155.161 188.838C154.815 188.249 154.173 187.547 153.237 186.732C152.059 185.692 151.235 184.756 150.767 183.924C150.299 183.075 150.065 182.121 150.065 181.064C150.065 179.625 150.429 178.516 151.157 177.736C151.885 176.939 152.943 176.54 154.329 176.54C155.699 176.54 156.73 176.939 157.423 177.736C158.134 178.516 158.489 179.643 158.489 181.116V181.87H155.785V180.934C155.785 180.31 155.664 179.859 155.421 179.582C155.179 179.287 154.823 179.14 154.355 179.14C153.402 179.14 152.925 179.721 152.925 180.882C152.925 181.541 153.099 182.156 153.445 182.728C153.809 183.3 154.459 183.993 155.395 184.808C156.591 185.848 157.415 186.793 157.865 187.642C158.316 188.491 158.541 189.488 158.541 190.632C158.541 192.123 158.169 193.267 157.423 194.064C156.695 194.861 155.629 195.26 154.225 195.26ZM163.899 195.26C162.513 195.26 161.464 194.87 160.753 194.09C160.043 193.293 159.687 192.157 159.687 190.684V189.644H162.391V190.892C162.391 192.071 162.885 192.66 163.873 192.66C164.359 192.66 164.723 192.521 164.965 192.244C165.225 191.949 165.355 191.481 165.355 190.84C165.355 190.077 165.182 189.41 164.835 188.838C164.489 188.249 163.847 187.547 162.911 186.732C161.733 185.692 160.909 184.756 160.441 183.924C159.973 183.075 159.739 182.121 159.739 181.064C159.739 179.625 160.103 178.516 160.831 177.736C161.559 176.939 162.617 176.54 164.003 176.54C165.373 176.54 166.404 176.939 167.097 177.736C167.808 178.516 168.163 179.643 168.163 181.116V181.87H165.459V180.934C165.459 180.31 165.338 179.859 165.095 179.582C164.853 179.287 164.497 179.14 164.029 179.14C163.076 179.14 162.599 179.721 162.599 180.882C162.599 181.541 162.773 182.156 163.119 182.728C163.483 183.3 164.133 183.993 165.069 184.808C166.265 185.848 167.089 186.793 167.539 187.642C167.99 188.491 168.215 189.488 168.215 190.632C168.215 192.123 167.843 193.267 167.097 194.064C166.369 194.861 165.303 195.26 163.899 195.26ZM169.855 176.8H172.715V195H169.855V176.8ZM174.857 176.8H179.173C180.646 176.8 181.721 177.147 182.397 177.84C183.073 178.516 183.411 179.565 183.411 180.986V181.714C183.411 182.65 183.255 183.413 182.943 184.002C182.648 184.591 182.189 185.016 181.565 185.276V185.328C182.986 185.813 183.697 187.079 183.697 189.124V190.684C183.697 192.088 183.324 193.163 182.579 193.908C181.851 194.636 180.776 195 179.355 195H174.857V176.8ZM178.835 184.21C179.407 184.21 179.832 184.063 180.109 183.768C180.404 183.473 180.551 182.979 180.551 182.286V181.272C180.551 180.613 180.43 180.137 180.187 179.842C179.962 179.547 179.598 179.4 179.095 179.4H177.717V184.21H178.835ZM179.355 192.4C179.858 192.4 180.23 192.27 180.473 192.01C180.716 191.733 180.837 191.265 180.837 190.606V189.02C180.837 188.188 180.69 187.616 180.395 187.304C180.118 186.975 179.65 186.81 178.991 186.81H177.717V192.4H179.355ZM185.369 176.8H188.229V195H185.369V176.8ZM190.371 176.8H193.231V192.4H197.937V195H190.371V176.8ZM199.308 176.8H202.168V195H199.308V176.8ZM206.546 179.4H203.556V176.8H212.396V179.4H209.406V195H206.546V179.4ZM216.508 187.252L213.05 176.8H216.092L218.042 183.482H218.094L220.044 176.8H222.826L219.368 187.252V195H216.508V187.252ZM227.525 176.8H230.411L232.283 190.918H232.335L234.207 176.8H236.833L234.077 195H230.281L227.525 176.8ZM239.68 176.8H243.554L246.518 195H243.658L243.138 191.386V191.438H239.888L239.368 195H236.716L239.68 176.8ZM242.8 188.968L241.526 179.972H241.474L240.226 188.968H242.8ZM247.906 176.8H250.766V192.4H255.472V195H247.906V176.8ZM256.843 176.8H259.703V195H256.843V176.8ZM261.845 176.8H266.213C267.635 176.8 268.701 177.181 269.411 177.944C270.122 178.707 270.477 179.825 270.477 181.298V190.502C270.477 191.975 270.122 193.093 269.411 193.856C268.701 194.619 267.635 195 266.213 195H261.845V176.8ZM266.161 192.4C266.629 192.4 266.985 192.261 267.227 191.984C267.487 191.707 267.617 191.256 267.617 190.632V181.168C267.617 180.544 267.487 180.093 267.227 179.816C266.985 179.539 266.629 179.4 266.161 179.4H264.705V192.4H266.161ZM274.567 176.8H278.441L281.405 195H278.545L278.025 191.386V191.438H274.775L274.255 195H271.603L274.567 176.8ZM277.687 188.968L276.413 179.972H276.361L275.113 188.968H277.687ZM283.835 179.4H280.845V176.8H289.685V179.4H286.695V195H283.835V179.4ZM295.102 195.26C293.698 195.26 292.624 194.861 291.878 194.064C291.133 193.267 290.76 192.14 290.76 190.684V181.116C290.76 179.66 291.133 178.533 291.878 177.736C292.624 176.939 293.698 176.54 295.102 176.54C296.506 176.54 297.581 176.939 298.326 177.736C299.072 178.533 299.444 179.66 299.444 181.116V190.684C299.444 192.14 299.072 193.267 298.326 194.064C297.581 194.861 296.506 195.26 295.102 195.26ZM295.102 192.66C296.09 192.66 296.584 192.062 296.584 190.866V180.934C296.584 179.738 296.09 179.14 295.102 179.14C294.114 179.14 293.62 179.738 293.62 180.934V190.866C293.62 192.062 294.114 192.66 295.102 192.66ZM301.379 176.8H305.617C307.09 176.8 308.165 177.147 308.841 177.84C309.517 178.516 309.855 179.565 309.855 180.986V182.104C309.855 183.993 309.231 185.189 307.983 185.692V185.744C308.676 185.952 309.161 186.377 309.439 187.018C309.733 187.659 309.881 188.517 309.881 189.592V192.79C309.881 193.31 309.898 193.735 309.933 194.064C309.967 194.376 310.054 194.688 310.193 195H307.281C307.177 194.705 307.107 194.428 307.073 194.168C307.038 193.908 307.021 193.44 307.021 192.764V189.436C307.021 188.604 306.882 188.023 306.605 187.694C306.345 187.365 305.885 187.2 305.227 187.2H304.239V195H301.379V176.8ZM305.279 184.6C305.851 184.6 306.275 184.453 306.553 184.158C306.847 183.863 306.994 183.369 306.994 182.676V181.272C306.994 180.613 306.873 180.137 306.631 179.842C306.405 179.547 306.041 179.4 305.539 179.4H304.239V184.6H305.279Z" fill="white"/>
</svg>
